<?xml version="1.0" encoding="UTF-8"?>
<svg width="700pt" height="700pt" version="1.1" viewBox="0 0 700 700" xmlns="http://www.w3.org/2000/svg">
 <path d="m490 17.5h-280c-29.75 0-52.5 22.75-52.5 52.5v420c0 29.75 22.75 52.5 52.5 52.5h280c29.75 0 52.5-22.75 52.5-52.5v-420c0-29.75-22.75-52.5-52.5-52.5zm-245 420h210c10.5 0 17.5 7 17.5 17.5s-7 17.5-17.5 17.5h-210c-10.5 0-17.5-7-17.5-17.5s7-17.5 17.5-17.5zm-17.5-52.5c0-10.5 7-17.5 17.5-17.5h210c10.5 0 17.5 7 17.5 17.5s-7 17.5-17.5 17.5h-210c-10.5 0-17.5-7-17.5-17.5zm227.5-52.5h-210c-10.5 0-17.5-7-17.5-17.5s7-17.5 17.5-17.5h210c10.5 0 17.5 7 17.5 17.5s-7 17.5-17.5 17.5zm-169.75-117.25 105-105c7-7 17.5-7 24.5 0s7 17.5 0 24.5l-105 105c-7 7-17.5 7-24.5 0s-7-17.5 0-24.5zm-5.25-84c0-14 12.25-26.25 26.25-26.25s26.25 12.25 26.25 26.25-12.25 26.25-26.25 26.25-26.25-12.25-26.25-26.25zm140 87.5c0 14-12.25 26.25-26.25 26.25s-26.25-12.25-26.25-26.25 12.25-26.25 26.25-26.25 26.25 12.25 26.25 26.25z"/>
</svg>
